<?xml version="1.0" standalone="no"?><!DOCTYPE svg PUBLIC "-//W3C//DTD SVG 1.1//EN" "http://www.w3.org/Graphics/SVG/1.1/DTD/svg11.dtd"><svg t="1757073446667" class="icon" viewBox="0 0 1024 1024" version="1.1" xmlns="http://www.w3.org/2000/svg" p-id="6183" xmlns:xlink="http://www.w3.org/1999/xlink" width="200" height="200"><path d="M487.8 817.8H281.4c-14.8 0-23.6-16.5-15.4-28.8l224.3-335.6h-61.9c-13.2 0-22.2-13.4-17.1-25.6L536.7 125c6.3-15.3 27.9-15.3 34.2 0l125.4 302.8c5.1 12.2-3.9 25.6-17.1 25.6h-60.8L842.8 789c8.2 12.3-0.6 28.8-15.4 28.8H487.8z" fill="#77DBCF" p-id="6184"></path><path d="M538.1 959.1c-9.1 0-16.5-7.4-16.5-16.5V784.7c0-9.1 7.4-16.5 16.5-16.5h223.1c0.4 0 1.2 0 1.8-1.1 0.6-1.1 0.1-1.8-0.1-2L538.6 429.5c-3.4-5.1-3.7-11.6-0.8-17 2.9-5.4 8.5-8.7 14.6-8.7h60.8c0.3 0 1.1 0 1.7-0.9 0.6-0.9 0.3-1.6 0.2-1.9L489.5 98.2c-0.3-0.9-3.3-0.9-3.7 0L360.4 401c-0.1 0.2-0.4 1 0.2 1.9 0.6 0.9 1.4 0.9 1.7 0.9h61.9c6.1 0 11.7 3.4 14.6 8.7 2.9 5.4 2.6 11.9-0.8 17L213.6 765.1c-0.2 0.3-0.7 1-0.1 2.1s1.4 1.1 1.8 1.1h206.4c9.1 0 16.5 7.4 16.5 16.5s-7.4 16.5-16.5 16.5H215.3c-13 0-24.8-7.1-30.9-18.5-6.1-11.4-5.4-25.2 1.8-36l207.1-309.9h-31c-11.7 0-22.6-5.8-29.2-15.6-6.5-9.8-7.7-22.1-3.2-32.9L455.3 85.5c5.4-13.1 18.2-21.6 32.4-21.6s26.9 8.5 32.4 21.6l125.4 302.8c4.5 10.8 3.3 23.1-3.2 32.9-6.5 9.7-17.4 15.6-29.2 15.6h-29.9l207.2 309.9c7.2 10.8 7.9 24.6 1.8 36-6.1 11.4-18 18.5-30.9 18.5H554.7v141.3c0 9.2-7.4 16.6-16.6 16.6z" fill="#333333" p-id="6185"></path></svg>